<svg id="Layer_1" height="512" viewBox="0 0 128 128" width="512" xmlns="http://www.w3.org/2000/svg" data-name="Layer 1"><path d="m104.963 24.043h-20.7a14.282 14.282 0 0 0 -13.233-9.459h-14.056a14.282 14.282 0 0 0 -13.233 9.459h-20.7a1.751 1.751 0 0 0 -1.75 1.75v10.333a1.751 1.751 0 0 0 1.75 1.75h2.629l8.546 69.618a6.579 6.579 0 0 0 6.376 5.922h46.816a6.579 6.579 0 0 0 6.376-5.922l8.546-69.618h2.633a1.751 1.751 0 0 0 1.75-1.75v-10.333a1.751 1.751 0 0 0 -1.75-1.75zm-47.989-5.959h14.052a10.657 10.657 0 0 1 9.393 5.959h-32.838a10.657 10.657 0 0 1 9.393-5.959zm33.337 88.983a3.084 3.084 0 0 1 -2.9 2.849h-46.819a3.084 3.084 0 0 1 -2.9-2.849l-8.492-69.191h69.6zm12.9-72.691h-78.424v-6.833h78.426z"/><path d="m64 99.928a5.649 5.649 0 0 0 5.643-5.643v-43.9a5.643 5.643 0 0 0 -11.286 0v43.9a5.649 5.649 0 0 0 5.643 5.643zm-2.143-49.545a2.143 2.143 0 0 1 4.286 0v43.9a2.143 2.143 0 0 1 -4.286 0z"/><path d="m80.458 99.928a5.617 5.617 0 0 0 5.57-4.9l5.524-43.99a5.613 5.613 0 0 0 -11.139-1.392l-5.524 43.988a5.6 5.6 0 0 0 5.569 6.294zm-2.1-5.858 5.525-43.991a2.112 2.112 0 0 1 2.1-1.839 2.089 2.089 0 0 1 1.589.716 2.066 2.066 0 0 1 .508 1.644l-5.525 43.99a2.117 2.117 0 0 1 -3.686 1.123 2.064 2.064 0 0 1 -.508-1.643z"/><path d="m36.448 51.035 5.524 43.99a5.613 5.613 0 0 0 11.139-1.391l-5.524-43.99a5.613 5.613 0 0 0 -11.139 1.391zm3.98-2.079a2.089 2.089 0 0 1 1.589-.716 2.112 2.112 0 0 1 2.1 1.84l5.525 43.99a2.064 2.064 0 0 1 -.508 1.642 2.117 2.117 0 0 1 -3.686-1.123l-5.528-43.989a2.066 2.066 0 0 1 .508-1.644z"/></svg>